<?xml version="1.0" standalone="no"?>
<!DOCTYPE svg PUBLIC "-//W3C//DTD SVG 20010904//EN"
 "http://www.w3.org/TR/2001/REC-SVG-20010904/DTD/svg10.dtd">
<svg version="1.0" xmlns="http://www.w3.org/2000/svg"
 width="784.000000pt" height="784.000000pt" viewBox="0 0 784.000000 784.000000"
 preserveAspectRatio="xMidYMid meet">
<metadata>
Created by potrace 1.14, written by Peter Selinger 2001-2017
</metadata>
<g transform="translate(0.000000,784.000000) scale(0.100000,-0.100000)"
fill="#000000" stroke="none">
<path d="M3668 7755 c-2 -2 -37 -6 -78 -9 -70 -5 -97 -8 -202 -21 -81 -11
-169 -25 -238 -39 -127 -27 -141 -30 -194 -44 -20 -6 -36 -8 -36 -5 0 3 -7 0
-15 -7 -8 -7 -15 -10 -15 -7 0 4 -19 -1 -42 -9 -24 -9 -52 -17 -63 -20 -12 -2
-46 -12 -77 -23 -31 -11 -59 -17 -62 -14 -3 4 -6 2 -6 -4 0 -6 -14 -13 -31
-17 -17 -3 -45 -12 -62 -20 -18 -7 -57 -23 -87 -35 -30 -12 -64 -26 -75 -31
-11 -5 -42 -19 -70 -30 -109 -48 -288 -141 -397 -208 -154 -94 -173 -106 -178
-112 -3 -3 -25 -18 -49 -34 -25 -16 -50 -33 -55 -38 -6 -4 -29 -22 -51 -38
-53 -39 -119 -91 -184 -145 -191 -158 -437 -418 -602 -635 -35 -47 -67 -86
-71 -88 -5 -2 -8 -7 -8 -11 0 -4 -28 -50 -63 -102 -63 -95 -96 -148 -129 -207
-84 -150 -118 -213 -118 -216 0 -2 -21 -48 -47 -102 -25 -54 -46 -104 -46
-111 0 -7 -4 -13 -8 -13 -6 0 -13 -20 -21 -57 -1 -5 -14 -36 -30 -70 -15 -35
-30 -71 -32 -80 -1 -10 -8 -31 -15 -47 -6 -16 -13 -36 -15 -45 -2 -9 -6 -23
-9 -31 -14 -36 -55 -180 -51 -180 3 0 0 -8 -5 -19 -6 -10 -13 -31 -16 -47 -5
-30 -12 -60 -20 -94 -10 -40 -15 -66 -21 -99 -3 -18 -8 -43 -11 -55 -2 -11 -6
-37 -8 -56 -2 -19 -4 -35 -5 -35 -2 0 -6 -25 -14 -90 -3 -22 -8 -58 -10 -80
-15 -116 -20 -233 -20 -455 0 -262 5 -352 29 -520 2 -19 7 -55 10 -80 4 -25
13 -76 21 -115 8 -38 17 -86 20 -105 21 -152 171 -617 247 -765 11 -22 19 -41
18 -43 -3 -5 104 -217 114 -224 5 -4 7 -8 3 -8 -15 0 208 -360 286 -463 12
-15 35 -45 51 -66 17 -22 40 -52 52 -68 12 -15 30 -38 40 -49 10 -12 34 -41
53 -64 46 -57 352 -364 410 -413 25 -20 56 -46 70 -58 14 -12 41 -33 60 -48
19 -14 37 -28 40 -31 3 -4 46 -35 95 -71 50 -35 92 -67 93 -71 2 -5 9 -8 16
-8 7 0 21 -8 32 -18 10 -9 31 -23 46 -31 16 -8 28 -18 28 -23 0 -4 5 -8 12 -8
6 0 43 -20 83 -44 166 -104 514 -265 705 -326 131 -42 232 -10 277 89 19 41
20 62 17 429 -2 212 -5 387 -7 388 -2 2 -19 -1 -38 -6 -19 -6 -52 -13 -74 -15
-22 -3 -51 -8 -65 -10 -14 -3 -70 -8 -125 -11 -54 -3 -101 -7 -103 -9 -3 -2
-13 0 -23 5 -12 7 -20 7 -24 0 -4 -6 -11 -8 -16 -4 -5 3 -38 7 -72 10 -34 2
-87 9 -117 15 -30 6 -62 13 -70 14 -8 2 -16 4 -17 5 -2 2 -6 3 -10 4 -69 15
-195 74 -273 127 -85 58 -210 186 -210 216 0 7 -4 13 -8 13 -7 0 -60 95 -62
112 -4 36 -143 298 -162 306 -4 2 -8 9 -8 15 0 7 -16 30 -36 52 -111 125 -172
179 -231 205 -38 16 -151 134 -149 155 2 35 20 53 65 69 101 34 275 1 411 -81
68 -40 240 -197 240 -218 0 -7 4 -15 8 -17 11 -4 72 -94 72 -106 0 -6 3 -12 8
-14 4 -2 20 -22 36 -46 37 -54 160 -182 175 -182 6 0 11 -4 11 -10 0 -5 7 -10
15 -10 8 0 15 -4 15 -9 0 -10 134 -77 175 -87 17 -4 35 -11 41 -16 7 -5 16 -8
20 -7 5 2 35 -1 67 -5 141 -20 311 0 442 50 22 9 40 15 40 13 0 -1 18 7 40 17
30 14 40 25 42 44 5 75 38 187 86 290 18 38 88 141 118 175 16 16 27 30 25 32
-1 1 -22 5 -47 8 -109 13 -169 22 -214 32 -11 2 -31 6 -45 8 -14 2 -47 9 -75
15 -27 6 -58 13 -69 16 -10 2 -44 11 -75 20 -31 10 -64 19 -74 21 -62 11 -334
130 -371 162 -10 9 -21 15 -25 15 -9 -2 -115 67 -119 77 -2 5 -10 9 -17 9 -8
0 -18 6 -22 13 -4 6 -28 28 -53 48 -65 53 -88 75 -157 156 -96 112 -158 212
-236 383 -24 52 -91 256 -101 310 -3 14 -10 45 -16 69 -6 24 -8 46 -6 49 3 2
2 12 -3 21 -5 9 -12 43 -16 76 -3 33 -8 74 -10 90 -9 70 -16 218 -16 330 1
166 10 262 37 373 9 35 17 68 18 75 5 31 61 185 77 215 10 17 15 32 11 32 -4
0 -2 4 3 8 6 4 21 30 34 57 14 28 35 64 48 82 13 17 23 34 23 37 0 8 118 162
135 176 10 8 11 19 3 43 -55 176 -66 262 -63 457 3 195 29 332 97 516 l19 52
92 -4 c87 -3 126 -7 172 -17 55 -13 112 -29 130 -36 11 -5 58 -23 105 -41 124
-48 265 -121 428 -222 155 -97 143 -94 257 -64 33 8 71 17 85 20 14 2 36 7 50
10 14 3 36 8 50 10 14 2 41 7 60 10 78 13 97 16 150 22 30 3 69 8 85 10 177
23 656 23 761 0 11 -2 54 -7 95 -11 40 -4 76 -8 79 -10 4 -2 26 -6 51 -9 24
-3 55 -8 69 -11 14 -3 48 -9 75 -15 28 -5 61 -12 75 -15 14 -3 36 -8 50 -11
14 -3 40 -9 57 -15 40 -13 63 -6 122 36 127 91 481 272 586 300 34 9 34 10 55
17 13 6 82 23 135 34 48 10 182 15 203 7 17 -6 30 -26 44 -64 21 -57 55 -182
64 -234 2 -16 7 -37 9 -45 24 -85 24 -435 0 -503 -2 -6 -6 -24 -9 -39 -5 -28
-21 -83 -37 -126 -10 -27 2 -56 38 -89 12 -12 23 -26 23 -32 0 -5 3 -11 8 -13
11 -5 62 -75 62 -86 0 -6 3 -12 8 -14 10 -4 53 -74 82 -133 14 -27 30 -53 35
-57 6 -4 7 -8 3 -8 -4 0 4 -24 17 -53 20 -47 61 -173 70 -216 2 -9 6 -27 9
-41 24 -101 30 -187 30 -380 0 -162 -7 -295 -19 -371 -2 -13 -6 -42 -9 -64 -3
-22 -8 -51 -11 -65 -2 -14 -10 -50 -16 -80 -6 -30 -12 -59 -13 -65 -16 -79
-106 -319 -153 -403 -36 -65 -111 -182 -129 -199 -8 -8 -14 -17 -14 -21 0 -12
-142 -156 -205 -209 -105 -88 -291 -199 -405 -243 -19 -7 -48 -19 -65 -26 -35
-14 -153 -55 -175 -59 -8 -2 -51 -12 -95 -23 -136 -35 -243 -55 -355 -68 -25
-2 -54 -6 -65 -9 -11 -2 -26 -4 -33 -4 -7 -1 14 -34 47 -73 62 -77 106 -157
136 -248 10 -30 20 -62 23 -70 3 -8 7 -24 9 -35 1 -11 9 -53 16 -93 7 -40 13
-98 12 -128 0 -30 3 -54 7 -54 4 0 5 -7 1 -15 -9 -24 -9 -235 0 -235 5 0 5 -5
1 -11 -4 -6 -8 -210 -9 -453 -2 -402 0 -445 16 -481 19 -45 66 -98 79 -90 4 3
10 0 12 -5 2 -6 33 -13 69 -16 58 -5 76 -2 164 31 223 81 486 204 649 304 38
23 72 41 77 41 5 0 9 4 9 9 0 5 13 14 28 20 15 6 40 23 56 36 16 14 32 22 36
20 5 -3 10 -1 12 3 1 5 46 40 98 77 52 38 100 73 106 79 7 6 24 20 39 30 14
11 34 27 44 35 10 9 45 38 77 65 173 146 494 495 615 671 18 28 36 52 39 55
20 20 151 230 209 333 63 113 201 397 201 413 0 3 6 20 14 37 20 44 85 222 89
244 2 10 10 32 16 48 7 17 14 37 16 45 2 8 22 85 43 170 22 85 42 171 45 190
3 19 8 44 10 55 7 32 20 108 22 130 1 11 6 43 10 70 4 28 9 64 10 80 2 17 7
66 11 110 16 160 8 689 -11 805 -2 14 -7 45 -10 70 -3 25 -12 83 -20 130 -8
47 -17 99 -20 115 -3 17 -8 41 -11 55 -3 14 -8 35 -10 46 -35 188 -178 602
-273 795 -22 44 -37 79 -34 79 4 0 0 8 -8 18 -8 9 -28 44 -44 77 -17 33 -32
62 -35 65 -3 3 -11 16 -17 30 -7 14 -24 43 -38 65 -13 22 -29 49 -34 60 -10
22 -217 322 -235 340 -6 7 -22 27 -36 45 -147 198 -443 490 -680 672 -96 74
-131 98 -139 98 -5 0 -11 4 -13 8 -3 7 -109 80 -173 119 -103 62 -194 113
-203 113 -6 0 -12 4 -14 8 -3 7 -250 132 -261 132 -3 0 -26 10 -53 22 -27 12
-51 23 -54 23 -6 2 -39 14 -65 25 -11 4 -45 17 -75 28 -30 11 -74 27 -97 36
-23 8 -75 24 -115 35 -40 11 -98 27 -128 35 -55 16 -188 46 -225 51 -11 2 -20
4 -20 5 0 1 -9 3 -20 4 -11 2 -33 6 -50 9 -16 4 -52 9 -80 13 -27 3 -57 7 -65
9 -8 2 -46 6 -85 10 -38 4 -83 10 -100 12 -37 5 -572 12 -577 8z"/>
</g>
</svg>
